<svg version="1.1" id="Layer_1" xmlns="http://www.w3.org/2000/svg" xmlns:xlink="http://www.w3.org/1999/xlink" x="0px" y="0px"
	 width="100%" viewBox="0 0 501 498" enable-background="new 0 0 501 498" xml:space="preserve">
<path fill="#000000" opacity="1.000000" stroke="none" 
	d="
M346.000000,499.000000 
	C230.666687,499.000000 115.833389,499.000000 1.000062,499.000000 
	C1.000041,333.000061 1.000041,167.000137 1.000021,1.000151 
	C167.999893,1.000100 334.999786,1.000100 501.999756,1.000050 
	C501.999817,166.999863 501.999817,332.999725 501.999908,498.999786 
	C450.166656,499.000000 398.333344,499.000000 346.000000,499.000000 
M367.084137,205.068573 
	C367.084137,205.068573 367.120453,204.903625 367.531036,204.809937 
	C367.811737,204.629959 367.896729,204.382584 367.941650,203.172653 
	C368.237396,197.787140 368.533142,192.401627 368.969666,186.088852 
	C369.314880,175.337997 369.759369,164.588409 369.898926,153.834900 
	C369.920013,152.209854 368.933441,149.611816 367.712250,149.083466 
	C358.490326,145.093567 349.243713,141.033127 338.629608,139.224915 
	C332.782959,138.108002 326.936279,136.991074 320.797089,135.259995 
	C315.549683,134.499725 310.302277,133.739456 305.035278,132.969315 
	C305.035278,132.969315 305.021790,132.952026 304.874084,132.498276 
	C304.566071,132.655945 304.258087,132.813629 303.453674,133.061111 
	C303.292358,133.108566 303.131042,133.156006 302.273804,133.030579 
	C300.501831,132.780228 298.729828,132.529877 296.351929,132.170456 
	C296.149231,132.202515 295.946533,132.234589 295.548157,132.142349 
	C295.548157,132.142349 295.350006,132.262619 294.695984,132.129608 
	C293.809998,132.062714 292.924011,131.995834 291.605011,131.254898 
	C289.736694,131.251465 287.868347,131.248032 285.504120,131.105255 
	C285.336090,131.069794 285.168060,131.034332 284.875610,130.535629 
	C284.583405,130.690338 284.291199,130.845047 283.257874,131.069672 
	C282.514709,131.043411 281.771545,131.017151 280.887878,130.520386 
	C280.580688,130.676376 280.273499,130.832352 279.223969,131.054321 
	C278.481445,131.103409 277.738922,131.152512 276.259460,131.034134 
	C275.508942,131.081589 274.758392,131.129044 273.361389,131.057693 
	C272.924896,131.020920 272.488373,130.984161 271.522888,130.263046 
	C262.390381,130.189529 253.257751,130.060379 244.125534,130.085236 
	C242.082565,130.090820 240.041061,130.636429 237.341705,131.024872 
	C236.901962,130.990906 236.462234,130.956955 235.558899,130.237640 
	C227.691360,131.152740 219.823837,132.067825 211.226151,133.038269 
	C210.494522,133.021744 209.762894,133.005219 208.888397,132.526657 
	C208.589859,132.678329 208.291336,132.830002 207.995209,132.998825 
	C207.995209,132.998825 207.974670,132.996704 207.293396,133.019760 
	C206.841812,133.071655 206.390244,133.123550 205.144241,133.055099 
	C202.747589,133.717438 200.350937,134.379761 197.294678,135.058014 
	C196.855743,135.035858 196.416794,135.013702 195.857834,134.542496 
	C195.573288,134.694107 195.288742,134.845718 194.998062,134.999573 
	C194.998062,134.999573 194.990952,135.008484 194.183884,135.038696 
	C191.777313,135.690186 189.370743,136.341690 186.319077,137.039673 
	C185.888138,137.035141 185.457214,137.030624 184.628464,136.459869 
	C171.701889,140.285538 158.751450,144.034988 145.887665,148.061295 
	C144.675629,148.440643 143.298584,150.518677 143.215805,151.881989 
	C142.910904,156.904099 142.946701,161.964706 143.163376,166.997528 
	C144.066437,187.971466 145.008942,208.944321 146.089798,229.909683 
	C146.564926,239.125488 146.820587,248.411499 148.205200,257.508972 
	C150.891083,275.156403 158.363998,291.265045 167.860458,306.023468 
	C175.711411,318.224579 184.286682,330.147980 195.295105,340.092499 
	C203.332245,347.352905 209.952927,356.195679 218.076370,363.342712 
	C228.869644,372.838684 240.435593,381.469147 251.863068,390.218842 
	C253.712341,391.634735 257.227478,393.033539 258.828857,392.211639 
	C263.720398,389.701233 268.161560,386.243591 272.557648,382.867645 
	C274.655975,381.256226 276.256256,378.996185 278.004456,377.034271 
	C278.004456,377.034271 278.010010,377.111877 278.750336,376.993011 
	C279.395935,376.886383 280.223450,377.000153 280.659851,376.639984 
	C287.299255,371.160126 294.328735,366.059357 300.391693,359.994873 
	C311.444855,348.938843 322.374847,337.689392 332.462006,325.764252 
	C338.534882,318.584808 342.918762,309.976715 348.004700,301.997711 
	C348.004700,301.997711 348.023254,302.053101 348.604675,301.678650 
	C350.329529,298.538635 352.054352,295.398621 354.091888,291.571564 
	C357.387695,283.380127 362.110504,275.448059 363.656952,266.938721 
	C366.206482,252.910080 366.659393,238.503891 368.091095,224.266418 
	C368.502075,220.179443 366.404602,218.133820 362.886993,217.007538 
	C353.878357,214.123154 344.900482,211.132721 335.828522,208.462601 
	C333.401978,207.748398 330.681549,208.032730 327.605957,207.204529 
	C325.674805,206.927292 323.751251,206.568268 321.811157,206.386993 
	C313.540924,205.614304 305.265808,204.894196 296.314362,203.799515 
	C294.854218,203.586090 293.394104,203.372650 291.317719,202.805450 
	C289.566742,202.837250 287.815796,202.869034 285.577850,202.365005 
	C283.628387,202.564804 281.673767,202.974426 279.730347,202.926971 
	C272.511261,202.750702 265.295807,202.424011 257.328644,201.830399 
	C257.215332,201.708664 257.115356,201.569138 256.984467,201.470764 
	C256.877777,201.390549 256.734100,201.359512 256.606812,201.306671 
	C256.396637,202.177429 256.005219,203.047760 256.003174,203.919006 
	C255.965714,220.051468 255.955231,236.184082 256.021393,252.316345 
	C256.025452,253.303741 256.713135,254.288361 257.616150,255.918503 
	C260.777649,255.947800 263.964172,255.732773 267.095917,256.053101 
	C275.838013,256.947235 284.620605,257.704865 293.261902,259.227539 
	C298.343018,260.122894 300.248810,264.031464 298.876251,268.940125 
	C298.012115,272.030548 297.033142,275.225525 295.380463,277.930481 
	C291.851929,283.705536 287.851776,289.192444 283.364227,295.159058 
	C281.473114,297.081879 279.555969,298.981323 277.754639,300.984894 
	C277.644775,301.107056 278.452881,302.054535 278.644623,302.565582 
	C278.644623,302.565582 278.677948,302.877258 279.258636,301.799194 
	C277.789368,302.089722 276.036499,301.965210 274.899597,302.742126 
	C269.762146,306.252747 264.876953,310.134979 259.707397,313.594147 
	C258.668518,314.289276 256.519348,314.246552 255.346008,313.642670 
	C252.128647,311.986755 249.158264,309.850983 246.037537,307.177887 
	C237.853043,298.448975 229.021439,290.223145 221.708527,280.816650 
	C216.722412,274.403046 213.858948,266.339264 210.000748,258.146210 
	C209.282745,253.072327 208.564743,247.998444 208.025162,242.024704 
	C207.621140,229.018234 207.217117,216.011749 206.894058,202.111542 
	C206.898178,200.619415 207.083252,199.101013 206.871017,197.640320 
	C206.327621,193.900269 208.744080,192.332748 211.611389,192.039932 
	C223.594528,190.816177 235.597977,189.716156 247.618546,188.962341 
	C254.719635,188.517014 261.866669,188.804260 269.910706,188.920364 
	C273.850677,189.070724 277.793549,189.167557 281.730011,189.382126 
	C291.145142,189.895325 300.557220,190.463974 310.426025,191.695892 
	C312.920319,191.836258 315.414581,191.976608 318.313416,192.766144 
	C319.216644,193.159988 320.101501,193.845367 321.025848,193.903549 
	C333.069336,194.661407 344.370209,198.536148 355.760284,202.048615 
	C359.180786,203.103455 362.611267,204.125977 366.182587,205.527939 
	C366.427338,205.382614 366.672089,205.237289 367.084137,205.068573 
z"/>
<path fill="#B91A1F" opacity="1.000000" stroke="none" 
	d="
M328.096039,207.858643 
	C330.681549,208.032730 333.401978,207.748398 335.828522,208.462601 
	C344.900482,211.132721 353.878357,214.123154 362.886993,217.007538 
	C366.404602,218.133820 368.502075,220.179443 368.091095,224.266418 
	C366.659393,238.503891 366.206482,252.910080 363.656952,266.938721 
	C362.110504,275.448059 357.387695,283.380127 353.608826,291.938538 
	C351.424927,295.554688 349.724091,298.803894 348.023254,302.053101 
	C348.023254,302.053101 348.004700,301.997711 347.726868,302.137756 
	C346.519775,303.204559 345.427490,304.017059 344.685638,305.075226 
	C332.948608,321.817322 320.258118,337.767120 305.265320,351.735168 
	C300.472290,356.200623 295.175140,360.124969 290.040344,363.937897 
	C289.806702,362.600494 289.151978,361.282501 289.556488,360.699585 
	C291.923065,357.289581 291.156738,353.879364 290.086792,350.352448 
	C289.857788,349.597595 290.082153,348.699829 290.123322,347.869202 
	C290.746582,335.293121 291.531799,322.721283 291.854431,310.137604 
	C291.912079,307.890045 290.057922,305.593414 289.086487,303.319458 
	C288.611084,303.471100 288.135651,303.622711 287.660217,303.774353 
	C288.377716,302.234528 289.095215,300.694702 289.997345,298.758606 
	C287.792755,298.242432 286.210602,297.872009 284.739502,297.244904 
	C285.060852,296.680359 285.271179,296.372528 285.780304,295.965790 
	C292.604218,289.484070 297.618439,282.116089 300.174988,273.297577 
	C303.444366,262.020447 301.109711,258.277649 289.653168,255.783432 
	C289.371887,255.722198 289.150452,255.386078 289.049438,254.823730 
	C292.741425,252.814941 297.503021,252.100952 295.462555,246.165253 
	C295.342743,245.816788 296.418518,245.184738 296.540680,244.601471 
	C296.886719,242.949097 297.299042,241.234665 297.184570,239.579269 
	C297.004211,236.970367 296.104401,234.395508 296.056000,231.796066 
	C295.895660,223.189987 295.979889,214.579346 296.221375,205.969147 
	C296.639526,205.963226 296.806610,205.958603 297.401611,205.972321 
	C305.016296,206.970688 312.183990,208.155838 319.399475,208.828644 
	C322.243469,209.093826 325.194000,208.215988 328.096039,207.858643 
z"/>
<path fill="#EB1C24" opacity="1.000000" stroke="none" 
	d="
M209.031265,132.988678 
	C209.762894,133.005219 210.494522,133.021744 211.873230,133.227142 
	C213.684265,133.612091 214.848236,133.808167 215.889709,134.327484 
	C210.342209,137.692780 204.969635,140.833160 199.482635,143.758942 
	C180.935730,153.648560 168.568359,169.543961 159.749908,187.765823 
	C153.534912,200.608047 148.555267,214.520859 150.965973,229.581543 
	C151.251923,231.367905 150.968765,233.240204 151.014633,235.071030 
	C151.280670,245.691772 154.461746,255.761154 159.216888,264.911194 
	C164.049545,274.210388 170.472229,282.769592 176.881531,291.129272 
	C180.464417,295.802460 185.332321,299.529449 189.827911,303.445465 
	C191.735153,305.106812 194.185516,306.324280 196.293762,302.851990 
	C197.690002,301.445129 198.817184,300.205597 200.181915,298.746796 
	C200.974487,297.368195 201.529510,296.208832 202.329865,294.868530 
	C203.070129,293.831116 203.565079,292.974701 204.316391,291.926300 
	C205.488403,290.619934 206.404053,289.505554 207.560791,288.474091 
	C209.550797,286.053253 211.299728,283.549500 213.372894,280.976685 
	C215.583435,281.191467 217.469757,281.475281 219.313080,281.767090 
	C219.270081,281.775055 219.270065,281.687592 219.206207,282.088684 
	C219.093918,286.104004 220.502747,288.461548 224.401581,288.711151 
	C224.360336,288.786102 224.383759,288.616608 224.305832,289.001404 
	C224.845413,293.436157 227.020172,296.065308 231.082214,296.959045 
	C231.045471,296.979095 231.006729,296.904846 231.154495,297.117981 
	C231.566330,297.552521 231.830383,297.773926 232.059753,297.982788 
	C232.025055,297.970215 232.051666,297.901428 232.084167,298.199432 
	C232.401535,299.013977 232.686417,299.530548 232.812378,300.427124 
	C232.588409,305.411591 231.460953,310.332947 232.716827,314.543365 
	C234.436615,320.309113 233.725571,325.140289 231.472412,330.381317 
	C230.607864,332.392365 231.064087,335.049438 231.198303,337.396118 
	C231.526764,343.139465 232.681503,348.934601 232.160995,354.585175 
	C231.905426,357.359650 231.360733,359.020142 233.898651,360.775330 
	C234.819595,361.412231 234.928360,363.223602 235.407700,364.499084 
	C233.931198,364.805115 232.464630,365.286072 230.975555,365.370544 
	C229.308365,365.465179 227.620789,365.200653 225.606506,365.013702 
	C224.821396,364.721741 224.299622,364.593781 223.932648,364.282990 
	C204.353409,347.701935 187.368774,328.688080 172.612259,307.796051 
	C156.797333,285.405609 148.753708,260.221832 147.973206,232.757645 
	C147.222153,206.328751 146.370087,179.902649 145.687500,153.472092 
	C145.658417,152.345795 146.651932,150.451813 147.569672,150.155273 
	C158.584534,146.596069 169.692871,143.327042 180.726059,139.822556 
	C182.297058,139.323563 183.599533,137.979202 185.026276,137.026123 
	C185.457214,137.030624 185.888138,137.035141 186.934875,137.213379 
	C190.030777,136.594223 192.510864,135.801361 194.990952,135.008484 
	C194.990952,135.008484 194.998062,134.999573 195.244507,134.998962 
	C195.490967,134.998352 195.977859,134.991562 195.977859,134.991547 
	C196.416794,135.013702 196.855743,135.035858 197.929047,135.241806 
	C201.033264,134.953690 203.503098,134.481766 206.259964,133.962616 
	C207.022888,133.609161 207.498779,133.302933 207.974670,132.996704 
	C207.974670,132.996704 207.995209,132.998825 208.253479,133.002716 
	C208.684906,133.000641 208.858093,132.994659 209.031265,132.988678 
z"/>
<path fill="#B91A1F" opacity="1.000000" stroke="none" 
	d="
M339.099701,139.854340 
	C349.243713,141.033127 358.490326,145.093567 367.712250,149.083466 
	C368.933441,149.611816 369.920013,152.209854 369.898926,153.834900 
	C369.759369,164.588409 369.314880,175.337997 368.569580,186.716644 
	C367.573303,190.025238 366.998627,192.711044 366.376526,195.385803 
	C364.985626,201.366196 363.405304,201.954147 357.670532,199.857712 
	C352.292755,197.891785 346.767853,196.176666 341.171844,194.993637 
	C331.967529,193.047775 330.007141,190.962067 329.999451,181.390045 
	C329.991302,171.251526 330.089935,161.111801 329.958771,150.974991 
	C329.895477,146.083405 331.346222,142.534119 336.512787,141.264236 
	C337.434906,141.037598 338.240387,140.336411 339.099701,139.854340 
z"/>
<path fill="#EE2A32" opacity="1.000000" stroke="none" 
	d="
M196.024719,303.019287 
	C194.185516,306.324280 191.735153,305.106812 189.827911,303.445465 
	C185.332321,299.529449 180.464417,295.802460 176.881531,291.129272 
	C170.472229,282.769592 164.049545,274.210388 159.216888,264.911194 
	C154.461746,255.761154 151.280670,245.691772 151.014633,235.071030 
	C150.968765,233.240204 151.251923,231.367905 150.965973,229.581543 
	C148.555267,214.520859 153.534912,200.608047 159.749908,187.765823 
	C168.568359,169.543961 180.935730,153.648560 199.482635,143.758942 
	C204.969635,140.833160 210.342209,137.692780 216.302994,134.316727 
	C223.233353,132.962799 229.627914,131.942902 236.022491,130.923004 
	C236.462234,130.956955 236.901962,130.990906 237.994263,131.218903 
	C249.764542,131.609039 260.882263,131.805130 272.093262,132.367279 
	C273.683502,133.489105 275.112579,134.471252 276.693939,134.945877 
	C278.889374,135.604813 281.267517,135.668991 283.446594,136.365768 
	C289.049866,138.157455 289.616730,139.710022 286.606995,144.987671 
	C277.502472,142.007217 268.945190,137.470306 259.980377,136.423630 
	C240.689529,134.171341 221.862228,137.500900 204.725876,147.200348 
	C189.763672,155.669250 177.124710,166.774734 168.939774,182.249634 
	C166.081055,187.654449 162.700272,192.979675 161.004120,198.765213 
	C156.291092,214.841339 154.324371,231.212830 158.888412,247.782928 
	C160.208374,252.575180 160.690048,257.735840 162.780151,262.147675 
	C166.309433,269.597351 170.218369,277.020813 175.066574,283.651825 
	C180.703461,291.361511 186.950790,298.834137 196.024719,303.019287 
z"/>
<path fill="#C71C24" opacity="1.000000" stroke="none" 
	d="
M284.628479,297.501587 
	C286.210602,297.872009 287.792755,298.242432 289.997345,298.758606 
	C289.095215,300.694702 288.377716,302.234528 287.660217,303.774353 
	C288.135651,303.622711 288.611084,303.471100 289.086487,303.319458 
	C290.057922,305.593414 291.912079,307.890045 291.854431,310.137604 
	C291.531799,322.721283 290.746582,335.293121 290.123322,347.869202 
	C290.082153,348.699829 289.857788,349.597595 290.086792,350.352448 
	C291.156738,353.879364 291.923065,357.289581 289.556488,360.699585 
	C289.151978,361.282501 289.806702,362.600494 289.864624,364.205109 
	C287.819244,366.827271 285.869385,368.811829 283.946625,370.822296 
	C281.954071,372.905731 279.987793,375.014313 278.010010,377.111877 
	C278.010010,377.111877 278.004456,377.034271 277.677307,377.063049 
	C274.566559,378.748505 271.782898,380.405151 268.984436,381.689941 
	C268.969604,378.073883 268.969604,374.829712 268.969604,371.624847 
	C275.215759,370.295685 274.995209,370.384888 272.590668,364.439545 
	C271.505829,361.757233 271.134003,358.647003 271.070618,355.717285 
	C270.880585,346.935913 270.834808,338.142548 271.109985,329.365723 
	C271.186432,326.927948 272.651611,324.552582 273.329590,322.106995 
	C273.684540,320.826630 274.345245,318.997131 273.773743,318.211182 
	C271.964172,315.722534 269.639191,313.608734 267.736450,311.105438 
	C271.532257,308.199677 275.105103,305.538452 278.677948,302.877258 
	C278.677948,302.877258 278.644623,302.565582 278.961914,302.341858 
	C279.477814,302.016846 279.676422,301.915588 280.118103,302.031189 
	C284.229095,302.896576 284.345490,300.148834 284.624756,297.534088 
	C284.629669,297.524139 284.628479,297.501587 284.628479,297.501587 
z"/>
<path fill="#C71C24" opacity="1.000000" stroke="none" 
	d="
M295.970276,205.970459 
	C295.979889,214.579346 295.895660,223.189987 296.056000,231.796066 
	C296.104401,234.395508 297.004211,236.970367 297.184570,239.579269 
	C297.299042,241.234665 296.886719,242.949097 296.540680,244.601471 
	C296.418518,245.184738 295.342743,245.816788 295.462555,246.165253 
	C297.503021,252.100952 292.741425,252.814941 288.639404,254.775040 
	C279.833832,254.528290 271.592834,253.796753 263.336304,253.508514 
	C259.876312,253.387726 258.750580,252.222168 258.822449,248.815170 
	C258.989838,240.881088 258.830475,232.940094 259.067047,225.325500 
	C259.556030,232.770798 259.710632,239.895981 260.063354,247.011368 
	C260.138885,248.534683 260.463898,250.632294 261.481567,251.414154 
	C264.766205,253.937714 275.966217,251.367722 279.158447,247.495850 
	C276.871490,247.116714 274.741516,246.763596 272.611542,246.410477 
	C272.192108,246.064011 271.772644,245.717560 271.353180,245.371109 
	C278.214355,243.219254 275.921204,238.440430 275.989441,234.352570 
	C276.033905,231.688858 276.063721,229.021790 275.983429,226.359756 
	C275.828400,221.220581 276.335175,215.907532 275.171722,210.997314 
	C274.075714,206.371872 275.561096,205.394150 279.493774,204.929764 
	C281.732758,204.665359 283.877594,203.603546 286.064819,202.900818 
	C287.815796,202.869034 289.566742,202.837250 291.435059,203.144073 
	C291.118256,203.792419 290.684113,204.102142 290.092407,204.524261 
	C292.349762,205.079651 294.160034,205.525055 295.970276,205.970459 
z"/>
<path fill="#EB1C24" opacity="1.000000" stroke="none" 
	d="
M286.969513,145.013382 
	C289.616730,139.710022 289.049866,138.157455 283.446594,136.365768 
	C281.267517,135.668991 278.889374,135.604813 276.693939,134.945877 
	C275.112579,134.471252 273.683502,133.489105 272.106689,132.103836 
	C272.035156,131.298691 272.043518,131.123032 272.051880,130.947388 
	C272.488373,130.984161 272.924896,131.020920 273.908203,131.279022 
	C275.302155,131.400757 276.149292,131.301178 276.996399,131.201614 
	C277.738922,131.152512 278.481445,131.103409 279.860687,131.029999 
	C280.674408,131.000748 280.851410,130.995804 281.028381,130.990875 
	C281.771545,131.017151 282.514709,131.043411 283.878723,131.044388 
	C284.666412,131.012360 284.833221,131.005615 285.000061,130.998871 
	C285.168060,131.034332 285.336090,131.069794 285.971497,131.435883 
	C288.305267,131.820648 290.171631,131.874786 292.038025,131.928940 
	C292.924011,131.995834 293.809998,132.062714 295.029053,132.347412 
	C295.362122,132.565216 295.636688,132.675491 295.636688,132.675491 
	C295.636688,132.675491 295.743805,132.266663 295.743805,132.266663 
	C295.946533,132.234589 296.149231,132.202515 296.763367,132.548492 
	C297.444336,133.291718 297.713806,133.656921 297.985809,134.466965 
	C297.963318,141.541077 297.996094,148.171188 297.899384,154.799423 
	C297.764343,164.049988 297.335968,173.301285 297.436340,182.547882 
	C297.478088,186.391586 296.409790,188.203461 292.435242,187.999527 
	C284.646820,187.599915 276.853607,187.293930 269.040527,186.715958 
	C269.018677,186.482712 269.005707,186.013382 269.152527,185.674469 
	C269.528015,183.886856 269.756622,182.438156 270.035889,180.637268 
	C271.085358,177.894913 272.084229,175.504745 273.317749,172.860413 
	C274.387512,170.433792 275.222656,168.261368 276.351166,165.910645 
	C278.085022,162.821777 279.525452,159.911209 281.205200,156.778137 
	C281.965607,155.371445 282.486786,154.187256 283.233978,152.735794 
	C283.966156,150.645462 284.472351,148.822433 285.271973,146.917206 
	C286.033478,146.227814 286.501495,145.620605 286.969513,145.013382 
z"/>
<path fill="#D83740" opacity="1.000000" stroke="none" 
	d="
M268.999268,382.061829 
	C271.782898,380.405151 274.566559,378.748505 277.716156,377.060913 
	C276.256256,378.996185 274.655975,381.256226 272.557648,382.867645 
	C268.161560,386.243591 263.720398,389.701233 258.828857,392.211639 
	C257.227478,393.033539 253.712341,391.634735 251.863068,390.218842 
	C240.435593,381.469147 228.869644,372.838684 218.076370,363.342712 
	C209.952927,356.195679 203.332245,347.352905 195.295105,340.092499 
	C184.286682,330.147980 175.711411,318.224579 167.860458,306.023468 
	C158.363998,291.265045 150.891083,275.156403 148.205200,257.508972 
	C146.820587,248.411499 146.564926,239.125488 146.089798,229.909683 
	C145.008942,208.944321 144.066437,187.971466 143.163376,166.997528 
	C142.946701,161.964706 142.910904,156.904099 143.215805,151.881989 
	C143.298584,150.518677 144.675629,148.440643 145.887665,148.061295 
	C158.751450,144.034988 171.701889,140.285538 184.827362,136.742996 
	C183.599533,137.979202 182.297058,139.323563 180.726059,139.822556 
	C169.692871,143.327042 158.584534,146.596069 147.569672,150.155273 
	C146.651932,150.451813 145.658417,152.345795 145.687500,153.472092 
	C146.370087,179.902649 147.222153,206.328751 147.973206,232.757645 
	C148.753708,260.221832 156.797333,285.405609 172.612259,307.796051 
	C187.368774,328.688080 204.353409,347.701935 223.932648,364.282990 
	C224.299622,364.593781 224.821396,364.721741 225.789902,365.290802 
	C233.844223,371.792328 241.379593,377.938049 249.107834,384.359680 
	C256.172974,391.024109 256.181061,391.035980 263.761780,385.874847 
	C265.545959,384.660156 267.255432,383.335785 268.999268,382.061829 
z"/>
<path fill="#D21F26" opacity="1.000000" stroke="none" 
	d="
M285.821350,202.632904 
	C283.877594,203.603546 281.732758,204.665359 279.493774,204.929764 
	C275.561096,205.394150 274.075714,206.371872 275.171722,210.997314 
	C276.335175,215.907532 275.828400,221.220581 275.983429,226.359756 
	C276.063721,229.021790 276.033905,231.688858 275.989441,234.352570 
	C275.921204,238.440430 278.214355,243.219254 271.353180,245.371109 
	C271.772644,245.717560 272.192108,246.064011 272.611542,246.410477 
	C274.741516,246.763596 276.871490,247.116714 279.158447,247.495850 
	C275.966217,251.367722 264.766205,253.937714 261.481567,251.414154 
	C260.463898,250.632294 260.138885,248.534683 260.063354,247.011368 
	C259.710632,239.895981 259.556030,232.770798 258.976440,224.898026 
	C258.327057,217.083969 258.031830,210.020996 257.867706,202.776337 
	C257.998779,202.594635 258.079010,202.153793 258.079010,202.153809 
	C265.295807,202.424011 272.511261,202.750702 279.730347,202.926971 
	C281.673767,202.974426 283.628387,202.564804 285.821350,202.632904 
z"/>
<path fill="#DF1B23" opacity="1.000000" stroke="none" 
	d="
M269.062378,186.949203 
	C276.853607,187.293930 284.646820,187.599915 292.435242,187.999527 
	C296.409790,188.203461 297.478088,186.391586 297.436340,182.547882 
	C297.335968,173.301285 297.764343,164.049988 297.899384,154.799423 
	C297.996094,148.171188 297.963318,141.541077 298.358948,134.460510 
	C300.142944,133.740616 301.556366,133.472015 302.969757,133.203430 
	C303.131042,133.156006 303.292358,133.108566 303.969910,133.020798 
	C304.664734,132.970993 304.843262,132.961502 305.021790,132.952026 
	C305.021790,132.952026 305.035278,132.969315 305.299011,133.214462 
	C306.471588,134.747482 308.063660,135.978180 308.177002,137.332626 
	C308.849182,145.365219 309.271088,153.422867 309.587555,161.479538 
	C309.767975,166.071732 309.572540,170.678101 309.579865,175.278015 
	C309.582214,176.752441 310.288513,178.594757 309.646454,179.635773 
	C307.188660,183.620819 308.144714,187.274338 309.970551,191.010223 
	C300.557220,190.463974 291.145142,189.895325 281.730011,189.382126 
	C277.793549,189.167557 273.850677,189.070724 269.455139,188.539108 
	C269.020538,187.754974 269.041443,187.352081 269.062378,186.949203 
z"/>
<path fill="#C71C24" opacity="1.000000" stroke="none" 
	d="
M338.864655,139.539627 
	C338.240387,140.336411 337.434906,141.037598 336.512787,141.264236 
	C331.346222,142.534119 329.895477,146.083405 329.958771,150.974991 
	C330.089935,161.111801 329.991302,171.251526 329.999451,181.390045 
	C330.007141,190.962067 331.967529,193.047775 341.171844,194.993637 
	C346.767853,196.176666 352.292755,197.891785 357.670532,199.857712 
	C363.405304,201.954147 364.985626,201.366196 366.376526,195.385803 
	C366.998627,192.711044 367.573303,190.025238 368.499207,187.180267 
	C368.533142,192.401627 368.237396,197.787140 367.722229,203.733841 
	C367.323456,204.465286 367.196014,204.668152 367.120453,204.903625 
	C367.120453,204.903625 367.084137,205.068573 366.779480,205.081543 
	C366.474854,205.094498 366.037170,205.163284 366.037170,205.163284 
	C362.611267,204.125977 359.180786,203.103455 355.760284,202.048615 
	C344.370209,198.536148 333.069336,194.661407 321.025848,193.903549 
	C320.101501,193.845367 319.216644,193.159988 318.357880,192.212952 
	C318.861877,190.431473 320.070312,188.591522 319.652405,188.079834 
	C317.755615,185.757401 317.562225,184.209396 320.337524,182.449158 
	C321.071655,181.983521 321.165405,180.190292 321.203705,178.995483 
	C321.526917,168.911850 321.392151,158.794830 322.212280,148.754608 
	C322.562958,144.461227 322.538513,141.376968 318.166840,140.370422 
	C319.266144,138.679321 320.177856,137.276733 321.089600,135.874146 
	C326.936279,136.991074 332.782959,138.108002 338.864655,139.539627 
z"/>
<path fill="#D31D23" opacity="1.000000" stroke="none" 
	d="
M320.943359,135.567078 
	C320.177856,137.276733 319.266144,138.679321 318.166840,140.370422 
	C322.538513,141.376968 322.562958,144.461227 322.212280,148.754608 
	C321.392151,158.794830 321.526917,168.911850 321.203705,178.995483 
	C321.165405,180.190292 321.071655,181.983521 320.337524,182.449158 
	C317.562225,184.209396 317.755615,185.757401 319.652405,188.079834 
	C320.070312,188.591522 318.861877,190.431473 318.155609,191.888367 
	C315.414581,191.976608 312.920319,191.836258 310.198303,191.353058 
	C308.144714,187.274338 307.188660,183.620819 309.646454,179.635773 
	C310.288513,178.594757 309.582214,176.752441 309.579865,175.278015 
	C309.572540,170.678101 309.767975,166.071732 309.587555,161.479538 
	C309.271088,153.422867 308.849182,145.365219 308.177002,137.332626 
	C308.063660,135.978180 306.471588,134.747482 305.308777,133.219391 
	C310.302277,133.739456 315.549683,134.499725 320.943359,135.567078 
z"/>
<path fill="#F6878B" opacity="1.000000" stroke="none" 
	d="
M207.846741,242.924561 
	C208.564743,247.998444 209.282745,253.072327 210.083374,258.986206 
	C211.581772,264.476532 212.997543,269.126862 214.026154,273.803528 
	C206.396027,268.928711 200.926270,262.198944 197.253159,254.577026 
	C189.893112,239.304596 188.254623,223.243301 195.393234,207.385529 
	C197.289337,203.173508 197.205353,196.587662 204.225403,196.349365 
	C204.463120,200.856552 204.642105,204.949646 204.510162,209.181732 
	C197.520569,223.212311 197.865707,243.068314 205.472046,249.865005 
	C205.736633,247.887497 205.944611,246.333191 206.327408,244.600098 
	C206.950409,243.922379 207.398575,243.423477 207.846741,242.924561 
M205.769241,254.216446 
	C206.052246,253.929169 206.335266,253.641876 206.618286,253.354614 
	C206.400101,253.161026 206.181900,252.967422 205.963699,252.773819 
	C205.792496,253.152679 205.621292,253.531540 205.769241,254.216446 
z"/>
<path fill="#F79396" opacity="1.000000" stroke="none" 
	d="
M257.736633,202.958023 
	C258.031830,210.020996 258.327057,217.083969 258.712891,224.574432 
	C258.830475,232.940094 258.989838,240.881088 258.822449,248.815170 
	C258.750580,252.222168 259.876312,253.387726 263.336304,253.508514 
	C271.592834,253.796753 279.833832,254.528290 288.491119,255.129471 
	C289.150452,255.386078 289.371887,255.722198 289.653168,255.783432 
	C301.109711,258.277649 303.444366,262.020447 300.174988,273.297577 
	C297.618439,282.116089 292.604218,289.484070 285.486267,295.823975 
	C284.610565,295.453186 284.327698,295.125305 284.044800,294.797394 
	C287.851776,289.192444 291.851929,283.705536 295.380463,277.930481 
	C297.033142,275.225525 298.012115,272.030548 298.876251,268.940125 
	C300.248810,264.031464 298.343018,260.122894 293.261902,259.227539 
	C284.620605,257.704865 275.838013,256.947235 267.095917,256.053101 
	C263.964172,255.732773 260.777649,255.947800 257.409607,255.107697 
	C257.072937,239.248962 256.905609,224.201141 256.856110,209.152954 
	C256.849335,207.088974 257.428680,205.023041 257.736633,202.958023 
z"/>
<path fill="#D05961" opacity="1.000000" stroke="none" 
	d="
M278.380188,377.052429 
	C279.987793,375.014313 281.954071,372.905731 283.946625,370.822296 
	C285.869385,368.811829 287.819244,366.827271 289.932922,364.564087 
	C295.175140,360.124969 300.472290,356.200623 305.265320,351.735168 
	C320.258118,337.767120 332.948608,321.817322 344.685638,305.075226 
	C345.427490,304.017059 346.519775,303.204559 347.755341,302.144226 
	C342.918762,309.976715 338.534882,318.584808 332.462006,325.764252 
	C322.374847,337.689392 311.444855,348.938843 300.391693,359.994873 
	C294.328735,366.059357 287.299255,371.160126 280.659851,376.639984 
	C280.223450,377.000153 279.395935,376.886383 278.380188,377.052429 
z"/>
<path fill="#D83740" opacity="1.000000" stroke="none" 
	d="
M204.821075,209.042755 
	C204.642105,204.949646 204.463120,200.856552 204.256287,195.969727 
	C205.425995,193.725830 206.360229,191.807938 207.889526,190.946884 
	C209.694931,189.930389 212.014832,189.827698 214.536285,189.279480 
	C219.775375,188.582245 224.589859,187.934387 229.836670,187.292114 
	C241.057877,186.928268 251.850342,186.632248 262.631531,186.105881 
	C264.151917,186.031631 265.617371,184.832642 267.327576,184.103134 
	C267.546906,184.052002 267.985382,183.949081 268.058228,184.233368 
	C268.422638,185.016235 268.714172,185.514801 269.005707,186.013382 
	C269.005707,186.013382 269.018677,186.482712 269.040527,186.715958 
	C269.041443,187.352081 269.020538,187.754974 268.996338,188.459961 
	C261.866669,188.804260 254.719635,188.517014 247.618546,188.962341 
	C235.597977,189.716156 223.594528,190.816177 211.611389,192.039932 
	C208.744080,192.332748 206.327621,193.900269 206.871017,197.640320 
	C207.083252,199.101013 206.898178,200.619415 206.643341,202.897491 
	C206.003418,207.098526 205.614197,210.513641 205.178146,213.522339 
	C205.027908,211.758209 204.924484,210.400482 204.821075,209.042755 
z"/>
<path fill="#FECFD1" opacity="1.000000" stroke="none" 
	d="
M214.413330,273.777161 
	C212.997543,269.126862 211.581772,264.476532 210.106201,259.419769 
	C213.858948,266.339264 216.722412,274.403046 221.708527,280.816650 
	C229.021439,290.223145 237.853043,298.448975 245.883026,307.739044 
	C245.608047,308.431946 245.487564,308.563660 245.086945,308.568420 
	C244.217499,308.286469 243.628204,308.131561 243.026672,307.987549 
	C243.014404,307.998474 243.025055,307.972504 242.948456,307.712830 
	C242.595551,307.261963 242.319244,307.070770 242.050766,306.922821 
	C242.058594,306.966095 242.144592,306.947662 242.088623,306.662415 
	C241.697418,306.212708 241.362183,306.048279 241.023407,305.925537 
	C241.019867,305.967194 241.103317,305.972565 241.036224,305.704498 
	C240.653046,305.270142 240.336990,305.103851 240.016998,304.968445 
	C240.013046,304.999329 240.056641,304.954865 239.958466,304.679260 
	C239.243179,303.952972 238.626068,303.502319 238.009766,303.018921 
	C238.010574,302.986237 237.945358,302.991516 237.845337,302.728333 
	C237.156357,302.022400 236.567398,301.579651 235.978561,301.080444 
	C235.978699,301.023987 235.865784,301.025177 235.750320,300.758179 
	C235.092545,300.295898 234.550217,300.100616 234.012131,299.938721 
	C234.016373,299.972046 234.077087,299.943176 233.971771,299.664795 
	C233.261520,298.891449 232.656601,298.396423 232.051666,297.901428 
	C232.051666,297.901428 232.025055,297.970215 231.979828,297.714935 
	C231.625290,297.274719 231.316010,297.089783 231.006729,296.904846 
	C231.006729,296.904846 231.045471,296.979095 231.017761,296.620728 
	C228.787949,293.713806 226.585846,291.165222 224.383759,288.616608 
	C224.383759,288.616608 224.360336,288.786102 224.301895,288.390137 
	C222.585663,285.891968 220.927856,283.789795 219.270050,281.687592 
	C219.270065,281.687592 219.270081,281.775055 219.221710,281.423096 
	C217.834457,279.410034 216.495560,277.748993 215.237625,275.843689 
	C215.016846,274.992004 214.715088,274.384583 214.413330,273.777161 
z"/>
<path fill="#FECFD1" opacity="1.000000" stroke="none" 
	d="
M278.968292,302.338226 
	C275.105103,305.538452 271.532257,308.199677 267.738037,311.117004 
	C267.516632,311.373077 267.512634,311.394073 267.180542,311.494629 
	C264.345673,313.346191 261.842896,315.097198 259.246765,316.801880 
	C259.153412,316.755554 259.047180,316.934937 258.667267,316.923584 
	C255.568039,315.592377 252.848709,314.272552 249.963104,312.671936 
	C248.320236,311.159241 246.843674,309.927338 245.367096,308.695404 
	C245.487564,308.563660 245.608047,308.431946 245.909302,308.102692 
	C249.158264,309.850983 252.128647,311.986755 255.346008,313.642670 
	C256.519348,314.246552 258.668518,314.289276 259.707397,313.594147 
	C264.876953,310.134979 269.762146,306.252747 274.899597,302.742126 
	C276.036499,301.965210 277.789368,302.089722 278.968292,302.338226 
z"/>
<path fill="#D05961" opacity="1.000000" stroke="none" 
	d="
M205.224976,213.928741 
	C205.614197,210.513641 206.003418,207.098526 206.602875,203.344360 
	C207.217117,216.011749 207.621140,229.018234 207.935944,242.474640 
	C207.398575,243.423477 206.950409,243.922379 206.331497,244.154419 
	C205.848831,233.901291 205.536911,223.915009 205.224976,213.928741 
z"/>
<path fill="#C71C24" opacity="1.000000" stroke="none" 
	d="
M327.851013,207.531586 
	C325.194000,208.215988 322.243469,209.093826 319.399475,208.828644 
	C312.183990,208.155838 305.016296,206.970688 297.406586,205.673126 
	C296.986603,204.955353 296.989532,204.555115 296.992462,204.154892 
	C305.265808,204.894196 313.540924,205.614304 321.811157,206.386993 
	C323.751251,206.568268 325.674805,206.927292 327.851013,207.531586 
z"/>
<path fill="#FECFD1" opacity="1.000000" stroke="none" 
	d="
M257.867706,202.776337 
	C257.428680,205.023041 256.849335,207.088974 256.856110,209.152954 
	C256.905609,224.201141 257.072937,239.248962 257.142883,254.785583 
	C256.713135,254.288361 256.025452,253.303741 256.021393,252.316345 
	C255.955231,236.184082 255.965714,220.051468 256.003174,203.919006 
	C256.005219,203.047760 256.396637,202.177429 256.606812,201.306671 
	C256.734100,201.359512 256.877777,201.390549 256.984467,201.470764 
	C257.115356,201.569138 257.215332,201.708664 257.703827,201.992096 
	C258.079010,202.153793 257.998779,202.594635 257.867706,202.776337 
z"/>
<path fill="#D21F26" opacity="1.000000" stroke="none" 
	d="
M271.787384,130.605225 
	C272.043518,131.123032 272.035156,131.298691 272.013428,131.737778 
	C260.882263,131.805130 249.764542,131.609039 238.322845,131.173157 
	C240.041061,130.636429 242.082565,130.090820 244.125534,130.085236 
	C253.257751,130.060379 262.390381,130.189529 271.787384,130.605225 
z"/>
<path fill="#D21F26" opacity="1.000000" stroke="none" 
	d="
M235.790695,130.580322 
	C229.627914,131.942902 223.233353,132.962799 216.425491,133.993469 
	C214.848236,133.808167 213.684265,133.612091 212.238297,133.199463 
	C219.823837,132.067825 227.691360,131.152740 235.790695,130.580322 
z"/>
<path fill="#D05961" opacity="1.000000" stroke="none" 
	d="
M348.313965,301.865875 
	C349.724091,298.803894 351.424927,295.554688 353.452484,292.282043 
	C352.054352,295.398621 350.329529,298.538635 348.313965,301.865875 
z"/>
<path fill="#FECFD1" opacity="1.000000" stroke="none" 
	d="
M283.704529,294.978210 
	C284.327698,295.125305 284.610565,295.453186 285.187500,295.922913 
	C285.271179,296.372528 285.060852,296.680359 284.739502,297.244873 
	C284.628479,297.501587 284.629669,297.524139 284.308594,297.615021 
	C282.616669,299.075378 281.245819,300.444855 279.875000,301.814362 
	C279.676422,301.915588 279.477814,302.016846 279.056519,302.368042 
	C278.452881,302.054535 277.644775,301.107056 277.754639,300.984894 
	C279.555969,298.981323 281.473114,297.081879 283.704529,294.978210 
z"/>
<path fill="#D83740" opacity="1.000000" stroke="none" 
	d="
M205.972931,134.009857 
	C203.503098,134.481766 201.033264,134.953690 198.258850,135.233856 
	C200.350937,134.379761 202.747589,133.717438 205.550934,133.323868 
	C205.957626,133.592636 205.972931,134.009857 205.972931,134.009857 
z"/>
<path fill="#D83740" opacity="1.000000" stroke="none" 
	d="
M194.587418,135.023590 
	C192.510864,135.801361 190.030777,136.594223 187.257416,137.190155 
	C189.370743,136.341690 191.777313,135.690186 194.587418,135.023590 
z"/>
<path fill="#D21F26" opacity="1.000000" stroke="none" 
	d="
M296.653412,203.977203 
	C296.989532,204.555115 296.986603,204.955353 296.978699,205.654770 
	C296.806610,205.958603 296.639526,205.963226 296.221375,205.969147 
	C294.160034,205.525055 292.349762,205.079651 290.092407,204.524261 
	C290.684113,204.102142 291.118256,203.792419 291.743164,203.320953 
	C293.394104,203.372650 294.854218,203.586090 296.653412,203.977203 
z"/>
<path fill="#D21F26" opacity="1.000000" stroke="none" 
	d="
M291.821533,131.591919 
	C290.171631,131.874786 288.305267,131.820648 286.219452,131.505539 
	C287.868347,131.248032 289.736694,131.251465 291.821533,131.591919 
z"/>
<path fill="#D31D23" opacity="1.000000" stroke="none" 
	d="
M302.621765,133.117004 
	C301.556366,133.472015 300.142944,133.740616 298.356445,134.015671 
	C297.713806,133.656921 297.444336,133.291718 297.066345,132.603012 
	C298.729828,132.529877 300.501831,132.780228 302.621765,133.117004 
z"/>
<path fill="#D21F26" opacity="1.000000" stroke="none" 
	d="
M276.627930,131.117874 
	C276.149292,131.301178 275.302155,131.400757 274.231445,131.338409 
	C274.758392,131.129044 275.508942,131.081589 276.627930,131.117874 
z"/>
<path fill="#D21F26" opacity="1.000000" stroke="none" 
	d="
M206.259964,133.962616 
	C205.972931,134.009857 205.957626,133.592636 205.948151,133.384033 
	C206.390244,133.123550 206.841812,133.071655 207.634033,133.008240 
	C207.498779,133.302933 207.022888,133.609161 206.259964,133.962616 
z"/>
<path fill="#D21F26" opacity="1.000000" stroke="none" 
	d="
M284.937836,130.767242 
	C284.833221,131.005615 284.666412,131.012360 284.249268,131.009430 
	C284.291199,130.845047 284.583405,130.690338 284.937836,130.767242 
z"/>
<path fill="#D21F26" opacity="1.000000" stroke="none" 
	d="
M208.959839,132.757660 
	C208.858093,132.994659 208.684906,133.000641 208.252258,132.994141 
	C208.291336,132.830002 208.589859,132.678329 208.959839,132.757660 
z"/>
<path fill="#B91A1F" opacity="1.000000" stroke="none" 
	d="
M367.325745,204.856781 
	C367.196014,204.668152 367.323456,204.465286 367.644409,204.181427 
	C367.896729,204.382584 367.811737,204.629959 367.325745,204.856781 
z"/>
<path fill="#D21F26" opacity="1.000000" stroke="none" 
	d="
M280.958130,130.755630 
	C280.851410,130.995804 280.674408,131.000748 280.231873,130.997009 
	C280.273499,130.832352 280.580688,130.676376 280.958130,130.755630 
z"/>
<path fill="#B91A1F" opacity="1.000000" stroke="none" 
	d="
M366.109863,205.345612 
	C366.037170,205.163284 366.474854,205.094498 366.695862,205.093231 
	C366.672089,205.237289 366.427338,205.382614 366.109863,205.345612 
z"/>
<path fill="#D31D23" opacity="1.000000" stroke="none" 
	d="
M304.947937,132.725159 
	C304.843262,132.961502 304.664734,132.970993 304.218140,132.975891 
	C304.258087,132.813629 304.566071,132.655945 304.947937,132.725159 
z"/>
<path fill="#D31D23" opacity="1.000000" stroke="none" 
	d="
M295.645996,132.204498 
	C295.743805,132.266663 295.636688,132.675491 295.636688,132.675491 
	C295.636688,132.675491 295.362122,132.565216 295.356079,132.413910 
	C295.350006,132.262619 295.548157,132.142349 295.645996,132.204498 
z"/>
<path fill="#D83740" opacity="1.000000" stroke="none" 
	d="
M195.917847,134.767029 
	C195.977859,134.991562 195.490967,134.998352 195.247589,134.997833 
	C195.288742,134.845718 195.573288,134.694107 195.917847,134.767029 
z"/>
<path fill="#DF1B23" opacity="1.000000" stroke="none" 
	d="
M248.914948,384.083771 
	C241.379593,377.938049 233.844223,371.792328 226.125488,365.369507 
	C227.620789,365.200653 229.308365,365.465179 230.975555,365.370544 
	C232.464630,365.286072 233.931198,364.805115 235.407700,364.499084 
	C234.928360,363.223602 234.819595,361.412231 233.898651,360.775330 
	C231.360733,359.020142 231.905426,357.359650 232.160995,354.585175 
	C232.681503,348.934601 231.526764,343.139465 231.198303,337.396118 
	C231.064087,335.049438 230.607864,332.392365 231.472412,330.381317 
	C233.725571,325.140289 234.436615,320.309113 232.716827,314.543365 
	C231.460953,310.332947 232.588409,305.411591 233.089050,300.401794 
	C233.708801,299.978668 233.892944,299.960907 234.077087,299.943176 
	C234.077087,299.943176 234.016373,299.972046 234.192581,300.154114 
	C234.867783,300.565826 235.366791,300.795502 235.865784,301.025177 
	C235.865784,301.025177 235.978699,301.023987 236.060898,301.360657 
	C236.743851,302.128723 237.344604,302.560120 237.945358,302.991516 
	C237.945358,302.991516 238.010574,302.986237 238.089447,303.312836 
	C238.797745,304.077911 239.427200,304.516388 240.056641,304.954865 
	C240.056641,304.954865 240.013046,304.999329 240.163788,305.174133 
	C240.577454,305.556793 240.840378,305.764679 241.103317,305.972565 
	C241.103317,305.972565 241.019867,305.967194 241.172668,306.139404 
	C241.598511,306.523621 241.871552,306.735626 242.144592,306.947662 
	C242.144592,306.947662 242.058594,306.966095 242.179688,307.134460 
	C242.495651,307.576385 242.737091,307.799591 243.025055,307.972504 
	C243.025055,307.972504 243.014404,307.998474 243.081482,308.327454 
	C245.086075,310.124237 247.023590,311.592010 248.980179,313.427368 
	C250.996964,315.533508 252.994675,317.272095 254.918762,319.393250 
	C254.230148,323.831390 253.192764,327.875793 253.084290,331.944916 
	C252.824036,341.709534 253.017700,351.485809 252.982559,361.257233 
	C252.976639,362.900574 252.624283,364.544556 252.643814,366.185699 
	C252.668365,368.249237 252.514084,370.443085 253.150085,372.341827 
	C254.169662,375.385834 253.548309,376.824463 250.251358,376.812103 
	C249.394028,376.808868 248.536667,376.811646 247.757904,376.811646 
	C247.441589,379.658691 253.290756,380.948547 248.914948,384.083771 
z"/>
<path fill="#EE3138" opacity="1.000000" stroke="none" 
	d="
M286.606995,144.987671 
	C286.501495,145.620605 286.033478,146.227814 284.878448,146.912048 
	C283.072662,146.722366 281.915741,146.561371 280.840851,146.173126 
	C264.223938,140.170883 247.330643,138.816711 230.119980,143.199707 
	C211.311310,147.989655 195.005585,157.001587 182.427826,172.059799 
	C159.872208,199.063644 156.587418,229.501099 168.216339,261.633179 
	C171.619080,271.035370 178.057129,279.697723 184.557327,287.486206 
	C188.479599,292.185852 192.191757,298.743286 199.944366,298.966034 
	C198.817184,300.205597 197.690002,301.445129 196.293762,302.851990 
	C186.950790,298.834137 180.703461,291.361511 175.066574,283.651825 
	C170.218369,277.020813 166.309433,269.597351 162.780151,262.147675 
	C160.690048,257.735840 160.208374,252.575180 158.888412,247.782928 
	C154.324371,231.212830 156.291092,214.841339 161.004120,198.765213 
	C162.700272,192.979675 166.081055,187.654449 168.939774,182.249634 
	C177.124710,166.774734 189.763672,155.669250 204.725876,147.200348 
	C221.862228,137.500900 240.689529,134.171341 259.980377,136.423630 
	C268.945190,137.470306 277.502472,142.007217 286.606995,144.987671 
z"/>
<path fill="#F25258" opacity="1.000000" stroke="none" 
	d="
M280.965912,157.000626 
	C279.525452,159.911209 278.085022,162.821777 276.334747,165.562836 
	C276.012970,164.930084 276.001007,164.466888 275.916809,163.651962 
	C274.998322,162.332916 274.291199,160.715424 273.284027,160.499863 
	C264.222870,158.560394 254.959412,154.907196 246.047775,155.587540 
	C234.381180,156.478210 222.468719,158.952011 211.973083,165.437805 
	C195.797272,175.433670 184.241043,189.046036 179.075378,207.422272 
	C177.401398,213.377335 178.063217,219.954453 176.765671,226.057602 
	C174.566254,236.402725 177.261841,246.220230 181.021194,255.195267 
	C186.450546,268.157166 193.813339,280.349579 207.229355,287.467346 
	C207.268372,287.981537 207.294037,288.186371 207.319702,288.391174 
	C206.404053,289.505554 205.488403,290.619934 204.114532,291.626709 
	C201.789291,290.515594 199.661118,289.813354 198.098358,288.458801 
	C189.163589,280.714508 182.279266,271.158722 177.635895,260.509155 
	C172.444229,248.602051 169.783936,235.930450 170.881500,222.587372 
	C171.814774,211.241547 174.870193,200.456696 180.401154,190.882553 
	C188.267242,177.266235 198.759903,166.029739 213.588577,158.968369 
	C230.300903,151.009995 247.260666,148.118317 265.284088,152.348511 
	C270.583405,153.592285 275.742523,155.433319 280.965912,157.000626 
z"/>
<path fill="#F03E44" opacity="1.000000" stroke="none" 
	d="
M200.181915,298.746796 
	C192.191757,298.743286 188.479599,292.185852 184.557327,287.486206 
	C178.057129,279.697723 171.619080,271.035370 168.216339,261.633179 
	C156.587418,229.501099 159.872208,199.063644 182.427826,172.059799 
	C195.005585,157.001587 211.311310,147.989655 230.119980,143.199707 
	C247.330643,138.816711 264.223938,140.170883 280.840851,146.173126 
	C281.915741,146.561371 283.072662,146.722366 284.584961,146.994232 
	C284.472351,148.822433 283.966156,150.645462 282.874023,152.655869 
	C265.597748,145.642395 248.281235,143.865463 230.580490,147.700226 
	C211.710739,151.788223 196.450165,162.113495 184.024063,176.643814 
	C175.091476,187.089020 169.505585,199.554977 167.436447,212.851547 
	C165.518768,225.174789 165.063858,237.844055 168.987350,250.302444 
	C173.412125,264.352570 179.307388,277.428772 190.798096,287.016235 
	C194.277557,289.919403 196.048706,295.649750 202.084549,295.049469 
	C201.529510,296.208832 200.974487,297.368195 200.181915,298.746796 
z"/>
<path fill="#F1494F" opacity="1.000000" stroke="none" 
	d="
M202.329865,294.868530 
	C196.048706,295.649750 194.277557,289.919403 190.798096,287.016235 
	C179.307388,277.428772 173.412125,264.352570 168.987350,250.302444 
	C165.063858,237.844055 165.518768,225.174789 167.436447,212.851547 
	C169.505585,199.554977 175.091476,187.089020 184.024063,176.643814 
	C196.450165,162.113495 211.710739,151.788223 230.580490,147.700226 
	C248.281235,143.865463 265.597748,145.642395 282.648010,152.923157 
	C282.486786,154.187256 281.965607,155.371445 281.205200,156.778137 
	C275.742523,155.433319 270.583405,153.592285 265.284088,152.348511 
	C247.260666,148.118317 230.300903,151.009995 213.588577,158.968369 
	C198.759903,166.029739 188.267242,177.266235 180.401154,190.882553 
	C174.870193,200.456696 171.814774,211.241547 170.881500,222.587372 
	C169.783936,235.930450 172.444229,248.602051 177.635895,260.509155 
	C182.279266,271.158722 189.163589,280.714508 198.098358,288.458801 
	C199.661118,289.813354 201.789291,290.515594 203.858185,291.818726 
	C203.565079,292.974701 203.070129,293.831116 202.329865,294.868530 
z"/>
<path fill="#D21F26" opacity="1.000000" stroke="none" 
	d="
M224.305817,289.001404 
	C226.585846,291.165222 228.787949,293.713806 231.054504,296.600677 
	C227.020172,296.065308 224.845413,293.436157 224.305817,289.001404 
z"/>
<path fill="#D21F26" opacity="1.000000" stroke="none" 
	d="
M207.560776,288.474091 
	C207.294037,288.186371 207.268372,287.981537 207.434875,287.257355 
	C208.128265,285.901184 208.629456,285.064392 209.406021,284.047302 
	C210.775375,282.899689 211.869354,281.932312 212.984604,280.985229 
	C213.005875,281.005493 213.048676,281.045746 213.048676,281.045746 
	C211.299728,283.549500 209.550797,286.053253 207.560776,288.474091 
z"/>
<path fill="#D21F26" opacity="1.000000" stroke="none" 
	d="
M219.206207,282.088684 
	C220.927856,283.789795 222.585663,285.891968 224.343140,288.315186 
	C220.502747,288.461548 219.093918,286.104004 219.206207,282.088684 
z"/>
<path fill="#D21F26" opacity="1.000000" stroke="none" 
	d="
M215.156647,276.087921 
	C216.495560,277.748993 217.834457,279.410034 219.264709,281.415100 
	C217.469757,281.475281 215.583435,281.191467 213.372894,280.976685 
	C213.048676,281.045746 213.005875,281.005493 213.034607,280.687256 
	C213.165161,279.979034 213.266998,279.589111 213.628845,278.945129 
	C214.311462,277.823334 214.734055,276.955627 215.156647,276.087921 
z"/>
<path fill="#D21F26" opacity="1.000000" stroke="none" 
	d="
M233.971771,299.664795 
	C233.892944,299.960907 233.708801,299.978668 233.247986,300.021729 
	C232.686417,299.530548 232.401535,299.013977 232.084167,298.199432 
	C232.656601,298.396423 233.261520,298.891449 233.971771,299.664795 
z"/>
<path fill="#D21F26" opacity="1.000000" stroke="none" 
	d="
M231.154495,297.117981 
	C231.316010,297.089783 231.625290,297.274719 232.014511,297.727478 
	C231.830383,297.773926 231.566330,297.552521 231.154495,297.117981 
z"/>
<path fill="#D31D23" opacity="1.000000" stroke="none" 
	d="
M249.107834,384.359680 
	C253.290756,380.948547 247.441589,379.658691 247.757904,376.811646 
	C248.536667,376.811646 249.394028,376.808868 250.251358,376.812103 
	C253.548309,376.824463 254.169662,375.385834 253.150085,372.341827 
	C252.514084,370.443085 252.668365,368.249237 252.643814,366.185699 
	C252.624283,364.544556 252.976639,362.900574 252.982559,361.257233 
	C253.017700,351.485809 252.824036,341.709534 253.084290,331.944916 
	C253.192764,327.875793 254.230148,323.831390 255.210358,319.510071 
	C256.732788,318.474579 257.889984,317.704742 259.047180,316.934937 
	C259.047180,316.934937 259.153412,316.755554 259.671906,316.833801 
	C264.107971,317.032471 266.568024,315.218750 267.512634,311.394073 
	C267.512634,311.394073 267.516632,311.373077 267.515076,311.361511 
	C269.639191,313.608734 271.964172,315.722534 273.773743,318.211182 
	C274.345245,318.997131 273.684540,320.826630 273.329590,322.106995 
	C272.651611,324.552582 271.186432,326.927948 271.109985,329.365723 
	C270.834808,338.142548 270.880585,346.935913 271.070618,355.717285 
	C271.134003,358.647003 271.505829,361.757233 272.590668,364.439545 
	C274.995209,370.384888 275.215759,370.295685 268.969604,371.624847 
	C268.969604,374.829712 268.969604,378.073883 268.984436,381.689941 
	C267.255432,383.335785 265.545959,384.660156 263.761780,385.874847 
	C256.181061,391.035980 256.172974,391.024109 249.107834,384.359680 
z"/>
<path fill="#B91A1F" opacity="1.000000" stroke="none" 
	d="
M280.118103,302.031189 
	C281.245819,300.444855 282.616669,299.075378 284.303680,297.624969 
	C284.345490,300.148834 284.229095,302.896576 280.118103,302.031189 
z"/>
<path fill="#F4787C" opacity="1.000000" stroke="none" 
	d="
M215.237610,275.843689 
	C214.734055,276.955627 214.311462,277.823334 213.201080,278.893066 
	C210.656952,278.527802 208.311218,278.495422 207.018204,277.312439 
	C189.633667,261.407013 181.703537,241.810562 185.116287,218.248169 
	C186.510635,208.621368 189.735336,199.311005 195.994019,191.801086 
	C200.916260,185.894821 206.948257,180.830444 212.893387,175.879776 
	C221.040131,169.095718 230.740738,165.312668 241.267181,165.170059 
	C249.792908,165.054535 258.399170,166.107986 266.838013,167.463272 
	C269.162262,167.836548 271.014343,171.150146 273.083069,173.114578 
	C272.084229,175.504745 271.085358,177.894913 269.781860,180.639252 
	C269.310120,180.965622 269.143005,180.937820 268.905518,180.561096 
	C267.499542,178.647476 266.435425,176.199524 264.775604,175.689316 
	C260.395172,174.342804 255.764404,173.177338 251.218826,173.121719 
	C238.275665,172.963348 226.443375,176.805359 216.194565,184.854950 
	C215.040756,185.761185 214.784271,187.809921 214.111679,189.328857 
	C212.014832,189.827698 209.694931,189.930389 207.889526,190.946884 
	C206.360229,191.807938 205.425995,193.725830 204.197540,195.555664 
	C197.205353,196.587662 197.289337,203.173508 195.393234,207.385529 
	C188.254623,223.243301 189.893112,239.304596 197.253159,254.577026 
	C200.926270,262.198944 206.396027,268.928711 214.026154,273.803528 
	C214.715088,274.384583 215.016846,274.992004 215.237610,275.843689 
z"/>
<path fill="#F3656A" opacity="1.000000" stroke="none" 
	d="
M273.317749,172.860413 
	C271.014343,171.150146 269.162262,167.836548 266.838013,167.463272 
	C258.399170,166.107986 249.792908,165.054535 241.267181,165.170059 
	C230.740738,165.312668 221.040131,169.095718 212.893387,175.879776 
	C206.948257,180.830444 200.916260,185.894821 195.994019,191.801086 
	C189.735336,199.311005 186.510635,208.621368 185.116287,218.248169 
	C181.703537,241.810562 189.633667,261.407013 207.018204,277.312439 
	C208.311218,278.495422 210.656952,278.527802 212.941040,279.147095 
	C213.266998,279.589111 213.165161,279.979034 213.013336,280.666962 
	C211.869354,281.932312 210.775375,282.899689 209.146561,283.794067 
	C206.154831,282.061493 203.488876,280.640289 201.277634,278.700684 
	C192.208069,270.745239 186.399796,260.728088 182.649414,249.302521 
	C175.652466,227.986252 179.032257,207.999969 191.656769,190.096802 
	C197.153748,182.301376 205.434006,176.434464 212.609207,169.865356 
	C221.212555,161.988754 232.497101,159.887970 243.133011,159.466919 
	C254.008102,159.036392 265.030884,162.336594 275.989014,164.003662 
	C276.001007,164.466888 276.012970,164.930084 276.041351,165.741119 
	C275.222656,168.261368 274.387512,170.433792 273.317749,172.860413 
z"/>
<path fill="#DF1B23" opacity="1.000000" stroke="none" 
	d="
M268.975861,180.910004 
	C269.143005,180.937820 269.310120,180.965622 269.731262,180.991440 
	C269.756622,182.438156 269.528015,183.886856 269.152527,185.674469 
	C268.714172,185.514801 268.422638,185.016235 268.084442,183.904663 
	C268.350494,182.497757 268.663177,181.703888 268.975861,180.910004 
z"/>
<path fill="#F79396" opacity="1.000000" stroke="none" 
	d="
M205.178162,213.522339 
	C205.536911,223.915009 205.848831,233.901291 206.156662,244.333221 
	C205.944611,246.333191 205.736633,247.887497 205.472046,249.865005 
	C197.865707,243.068314 197.520569,223.212311 204.510162,209.181732 
	C204.924484,210.400482 205.027908,211.758209 205.178162,213.522339 
z"/>
<path fill="#F79396" opacity="1.000000" stroke="none" 
	d="
M205.609650,254.063416 
	C205.621292,253.531540 205.792496,253.152679 205.963715,252.773819 
	C206.181900,252.967422 206.400101,253.161026 206.618286,253.354614 
	C206.335266,253.641876 206.052246,253.929169 205.609650,254.063416 
z"/>
<path fill="#F6878B" opacity="1.000000" stroke="none" 
	d="
M268.905518,180.561096 
	C268.663177,181.703888 268.350494,182.497757 268.011597,183.620361 
	C267.985382,183.949081 267.546906,184.052002 267.154327,183.776337 
	C263.321991,181.832474 260.006775,179.178833 256.413605,178.724792 
	C250.893341,178.027222 245.079330,178.241364 239.580826,179.183121 
	C234.114243,180.119370 228.883331,182.431610 223.549072,184.140472 
	C223.651794,184.577332 223.754532,185.014206 223.857254,185.451065 
	C225.706284,186.062881 227.555313,186.674713 229.404343,187.286530 
	C224.589859,187.934387 219.775375,188.582245 214.536285,189.279480 
	C214.784271,187.809921 215.040756,185.761185 216.194565,184.854950 
	C226.443375,176.805359 238.275665,172.963348 251.218826,173.121719 
	C255.764404,173.177338 260.395172,174.342804 264.775604,175.689316 
	C266.435425,176.199524 267.499542,178.647476 268.905518,180.561096 
z"/>
<path fill="#F79396" opacity="1.000000" stroke="none" 
	d="
M229.836670,187.292114 
	C227.555313,186.674713 225.706284,186.062881 223.857254,185.451065 
	C223.754532,185.014206 223.651794,184.577332 223.549072,184.140472 
	C228.883331,182.431610 234.114243,180.119370 239.580826,179.183121 
	C245.079330,178.241364 250.893341,178.027222 256.413605,178.724792 
	C260.006775,179.178833 263.321991,181.832474 266.934998,183.827484 
	C265.617371,184.832642 264.151917,186.031631 262.631531,186.105881 
	C251.850342,186.632248 241.057877,186.928268 229.836670,187.292114 
z"/>
<path fill="#D21F26" opacity="1.000000" stroke="none" 
	d="
M248.961121,313.059814 
	C247.023590,311.592010 245.086075,310.124237 243.093735,308.316528 
	C243.628204,308.131561 244.217499,308.286469 245.086945,308.568420 
	C246.843674,309.927338 248.320236,311.159241 249.670975,312.697937 
	C249.350464,313.023071 249.155792,313.041443 248.961121,313.059814 
z"/>
<path fill="#D21F26" opacity="1.000000" stroke="none" 
	d="
M239.958466,304.679260 
	C239.427200,304.516388 238.797745,304.077911 238.088638,303.345520 
	C238.626068,303.502319 239.243179,303.952972 239.958466,304.679260 
z"/>
<path fill="#D21F26" opacity="1.000000" stroke="none" 
	d="
M237.845337,302.728333 
	C237.344604,302.560120 236.743851,302.128723 236.060760,301.417114 
	C236.567398,301.579651 237.156357,302.022400 237.845337,302.728333 
z"/>
<path fill="#D21F26" opacity="1.000000" stroke="none" 
	d="
M235.750320,300.758179 
	C235.366791,300.795502 234.867783,300.565826 234.188339,300.120758 
	C234.550217,300.100616 235.092545,300.295898 235.750320,300.758179 
z"/>
<path fill="#D21F26" opacity="1.000000" stroke="none" 
	d="
M241.036224,305.704498 
	C240.840378,305.764679 240.577454,305.556793 240.167725,305.143250 
	C240.336990,305.103851 240.653046,305.270142 241.036224,305.704498 
z"/>
<path fill="#D21F26" opacity="1.000000" stroke="none" 
	d="
M242.088623,306.662415 
	C241.871552,306.735626 241.598511,306.523621 241.176208,306.097717 
	C241.362183,306.048279 241.697418,306.212708 242.088623,306.662415 
z"/>
<path fill="#D21F26" opacity="1.000000" stroke="none" 
	d="
M242.948456,307.712830 
	C242.737091,307.799591 242.495651,307.576385 242.171844,307.091187 
	C242.319244,307.070770 242.595551,307.261963 242.948456,307.712830 
z"/>
<path fill="#C71C24" opacity="1.000000" stroke="none" 
	d="
M248.980179,313.427368 
	C249.155792,313.041443 249.350464,313.023071 249.837265,312.978699 
	C252.848709,314.272552 255.568039,315.592377 258.667267,316.923584 
	C257.889984,317.704742 256.732788,318.474579 255.283997,319.127563 
	C252.994675,317.272095 250.996964,315.533508 248.980179,313.427368 
z"/>
<path fill="#C71C24" opacity="1.000000" stroke="none" 
	d="
M267.180542,311.494629 
	C266.568024,315.218750 264.107971,317.032471 259.765259,316.880127 
	C261.842896,315.097198 264.345673,313.346191 267.180542,311.494629 
z"/>
<path fill="#F35E64" opacity="1.000000" stroke="none" 
	d="
M275.916809,163.651947 
	C265.030884,162.336594 254.008102,159.036392 243.133011,159.466919 
	C232.497101,159.887970 221.212555,161.988754 212.609207,169.865356 
	C205.434006,176.434464 197.153748,182.301376 191.656769,190.096802 
	C179.032257,207.999969 175.652466,227.986252 182.649414,249.302521 
	C186.399796,260.728088 192.208069,270.745239 201.277634,278.700684 
	C203.488876,280.640289 206.154831,282.061493 208.871185,283.974304 
	C208.629456,285.064392 208.128265,285.901184 207.421539,286.947998 
	C193.813339,280.349579 186.450546,268.157166 181.021194,255.195267 
	C177.261841,246.220230 174.566254,236.402725 176.765671,226.057602 
	C178.063217,219.954453 177.401398,213.377335 179.075378,207.422272 
	C184.241043,189.046036 195.797272,175.433670 211.973083,165.437805 
	C222.468719,158.952011 234.381180,156.478210 246.047775,155.587540 
	C254.959412,154.907196 264.222870,158.560394 273.284027,160.499863 
	C274.291199,160.715424 274.998322,162.332916 275.916809,163.651947 
z"/>
</svg>